# xmcd
#
# Track frame offsets:
#	150
#	17955
#	35841
#	48147
#	59775
#	70557
#	85023
#	102498
#	113901
#	127605
#	141969
#	155016
#	171648
#	185532
#	198342
#	215472
#
# Disc length: 2989 seconds
#
# Revision: 2
# Processed by: cddbd v1.4PL0 Copyright (c) Steve Scherf et al.
# Submitted via: EZCDDA 4.3.2
#
DISCID=ea0bab10
DTITLE=Various Artist - Country Perly
DYEAR=1900
DGENRE=
TTITLE0=Gotta slow down
TTITLE1=Jednou Te najdu
TTITLE2=Severni vitr
TTITLE3=Snatkovy Podvodnik
TTITLE4=Je to v nas
TTITLE5=Ghost dance
TTITLE6=Walk the way the wind blows
TTITLE7=Vylepsi si rano kavou
TTITLE8=Az te uvidi
TTITLE9=Horam
TTITLE10=Rychlikem stesti nechytis
TTITLE11=Dvojnik
TTITLE12=Stovky mil
TTITLE13=Co ty vis
TTITLE14=Wall of tiers
TTITLE15=Orange Blossom special
EXTD=
EXTT0=
EXTT1=
EXTT2=
EXTT3=
EXTT4=
EXTT5=
EXTT6=
EXTT7=
EXTT8=
EXTT9=
EXTT10=
EXTT11=
EXTT12=
EXTT13=
EXTT14=
EXTT15=
PLAYORDER=
